<svg width="1649" height="1683" viewBox="0 0 1649 1683" fill="none" xmlns="http://www.w3.org/2000/svg">
<path d="M351.5 1111V1072L376.5 1102L336 1094L376.5 1079.5L347 1111" stroke="white" stroke-width="3" stroke-linecap="round"/>
<path d="M402.777 1172.49L410.926 1161.56L412.362 1175.71L401.552 1164.17L417.064 1169.41L401.39 1171.46" stroke="white" stroke-width="3" stroke-linecap="round"/>
<path d="M407 101L397.5 114L361 72.5H340.5" stroke="white" stroke-width="3" stroke-linecap="round"/>
<path d="M556.5 1.5C574.667 7.83333 612.1 38.4 616.5 110C617.833 120.5 619.7 143.7 616.5 152.5C613.3 161.3 613.833 169.167 614.5 172" stroke="white" stroke-width="3" stroke-linecap="round"/>
<path d="M691 250C698 256.5 712.7 274 715.5 292C718.3 310 716.667 323.167 715.5 327.5" stroke="white" stroke-width="3" stroke-linecap="round"/>
<path d="M264.5 117.5C281.3 72.7 324.167 83.5 343.5 94.5C370.5 103.625 396 134.5 386 166C378 191.2 345.333 197.167 330 197C301.167 189.167 247.7 162.3 264.5 117.5Z" stroke="white" stroke-width="3" stroke-linecap="round"/>
<path d="M467.5 146C430.167 148.333 372 171.4 438 245" stroke="white" stroke-width="3" stroke-linecap="round"/>
<path d="M303.5 281.5C312.667 289.667 334.6 304.8 349 300C352 304 361.2 312.1 374 312.5" stroke="white" stroke-width="3" stroke-linecap="round"/>
<path d="M207 105C178.333 123.333 130.6 179.3 169 256.5C157.833 260.5 134 270.7 128 279.5" stroke="white" stroke-width="3" stroke-linecap="round"/>
<path d="M817 205H719.5C714.5 198 707.5 183.2 719.5 180C728.333 171.667 753.1 160 781.5 180C786.667 177 799 172.8 807 180" stroke="white" stroke-width="3" stroke-linecap="round"/>
<path d="M153.5 37.5L172 42.5L178.5 21.5L198.5 32L182 69L149 56L153.5 37.5Z" stroke="white" stroke-width="3" stroke-linecap="round"/>
<path d="M1.5 62H13L16.5 40.5L28.5 50L25 73H1.5V62Z" stroke="white" stroke-width="3" stroke-linecap="round"/>
<path d="M77.5 170.5V132.5L95.5 166L58 150L101.5 132.5L77.5 170.5Z" stroke="white" stroke-width="3" stroke-linecap="round"/>
<path d="M115 213.5L122 196L125.5 217.5L101.5 199.5L137.5 207L115 213.5Z" stroke="white" stroke-width="3" stroke-linecap="round"/>
<path d="M866 194.5C904.167 193.333 989.9 204.4 1027.5 258" stroke="white" stroke-width="3" stroke-linecap="round"/>
<path d="M1080 465C1081.33 493.333 1079.6 561.8 1062 609" stroke="white" stroke-width="3" stroke-linecap="round"/>
<path d="M677 433.5L645 533.5" stroke="white" stroke-width="3" stroke-linecap="round"/>
<path d="M424.5 576.5L395.5 685L52 643" stroke="white" stroke-width="3" stroke-linecap="round"/>
<path d="M125.5 512L138 471H188" stroke="white" stroke-width="3" stroke-linecap="round"/>
<path d="M42 654.5L72 660L65 708H42" stroke="white" stroke-width="3" stroke-linecap="round"/>
<path d="M487.5 619C513.5 632.333 570.7 673.6 591.5 732" stroke="white" stroke-width="3" stroke-linecap="round"/>
<path d="M682.5 734L709.5 686C719.333 693.667 744.4 702.5 766 676.5C817.167 685.167 927.4 699.2 959 686" stroke="white" stroke-width="3" stroke-linecap="round"/>
<path d="M955.5 468.5L973 462.5" stroke="white" stroke-width="3" stroke-linecap="round"/>
<path d="M753.937 446.797L742.861 443" stroke="white" stroke-width="1.89873" stroke-linecap="round"/>
<path d="M964 488L981.5 482" stroke="white" stroke-width="3" stroke-linecap="round"/>
<path d="M748.557 459.139L737.481 455.342" stroke="white" stroke-width="1.89873" stroke-linecap="round"/>
<path d="M947.5 478.5L986.5 464.5" stroke="white" stroke-width="3" stroke-linecap="round"/>
<path d="M759 453.127L734.316 444.266" stroke="white" stroke-width="1.89873" stroke-linecap="round"/>
<path d="M948 485L987 471" stroke="white" stroke-width="3" stroke-linecap="round"/>
<path d="M758.684 457.241L734 448.38" stroke="white" stroke-width="1.89873" stroke-linecap="round"/>
<path d="M593.5 390L576.5 416H608.5L576.5 454H608.5L593.5 494L649 439.5H608.5L641 399.5H603.5L621.5 390" stroke="white" stroke-width="3" stroke-linecap="round"/>
<path d="M513 709L508 692L526 709H491L526 692L513 709Z" stroke="white" stroke-width="3" stroke-linecap="round"/>
<path d="M1030 556.5C1020.8 527.7 1033.83 533.167 1041.5 539.5C1059.1 521.9 1059.83 539.5 1058 550.5L1041.5 578L1030 556.5Z" stroke="white" stroke-width="3" stroke-linecap="round"/>
<path d="M604 932.5C628.4 883.7 680.167 892.5 703 903C721.333 916.667 751.9 954.6 727.5 997C703.1 1039.4 659.667 1035 641 1027.5C618.5 1016.17 579.6 981.3 604 932.5Z" stroke="white" stroke-width="3" stroke-linecap="round"/>
<path d="M795 949C794.6 900.6 843.833 885.5 868.5 884C892 885.833 937.9 904.1 933.5 962.5C929.1 1020.9 880 1028.17 856 1024.5C835.833 1019.5 795.4 997.4 795 949Z" stroke="white" stroke-width="3" stroke-linecap="round"/>
<path d="M736 952H794" stroke="white" stroke-width="3" stroke-linecap="round"/>
<path d="M694.5 1158.5C703.833 1164.83 725.6 1183.9 738 1209.5C750.4 1235.1 740.833 1299.83 734.5 1329M781.5 1209.5C795.5 1220.33 825.1 1242.5 831.5 1244.5C839.5 1247 852 1242.5 855 1237.5C858 1232.5 859 1210 874 1196.5" stroke="white" stroke-width="3" stroke-linecap="round"/>
<path d="M901 1188C917.833 1187.67 952.6 1199.7 957 1250.5C962.167 1263.83 972.7 1293.5 973.5 1305.5C974.5 1320.5 984 1365 983 1395" stroke="white" stroke-width="3" stroke-linecap="round"/>
<path d="M538 1271C532.333 1289.67 521.5 1327.3 523.5 1328.5" stroke="white" stroke-width="3" stroke-linecap="round"/>
<path d="M696 797C687.667 802.5 676 817.8 696 835" stroke="white" stroke-width="3" stroke-linecap="round"/>
<path d="M910 806.5C904.833 820 888 848.1 862 852.5" stroke="white" stroke-width="3" stroke-linecap="round"/>
<path d="M577 768C560.5 791.333 531.8 853 549 913" stroke="white" stroke-width="3" stroke-linecap="round"/>
<path d="M509.5 889C489.333 912 448.1 963.8 444.5 987C440.9 1010.2 422.667 1027 414 1032.5" stroke="white" stroke-width="3" stroke-linecap="round"/>
<path d="M394 824.5L427 830L431 805L474 815L459 880.5L383.5 861L394 824.5Z" stroke="white" stroke-width="3" stroke-linecap="round"/>
<path d="M423.5 873.5L418.25 888.75M413 904L418.25 888.75M452 810L460.5 787M460.5 787L466 799.5M460.5 787L447.5 795M418.25 888.75L426.5 907" stroke="white" stroke-width="3" stroke-linecap="round"/>
<path d="M416 911.5L413 903L401 906M418 890L401 894" stroke="white" stroke-width="3" stroke-linecap="round"/>
<path d="M1066 1329.5V1296L1093 1329.5L1040 1317.5L1093 1296L1066 1329.5Z" stroke="white" stroke-width="3" stroke-linecap="round"/>
<path d="M962.5 1019C965.5 1026.17 968.6 1043.2 957 1054" stroke="white" stroke-width="3" stroke-linecap="round"/>
<path d="M1027.39 798.919L1008.12 821.236M1038.15 803.26L1019.06 824.882" stroke="white" stroke-width="3" stroke-linecap="round"/>
<path d="M1008.36 796.326L1048.47 816.606" stroke="white" stroke-width="3" stroke-linecap="round"/>
<path d="M1002 807.124L1038.51 827.228" stroke="white" stroke-width="3" stroke-linecap="round"/>
<path d="M1435.5 1004.5C1465.33 1021.33 1523.9 1071.9 1519.5 1139.5C1515.1 1207.1 1522.33 1229.33 1526.5 1232" stroke="white" stroke-width="3" stroke-linecap="round"/>
<path d="M1647 1026H1574.5V1497.5" stroke="white" stroke-width="3" stroke-linecap="round"/>
<path d="M1593 1385.5L1598 1052.5H1620.5" stroke="white" stroke-width="3" stroke-linecap="round"/>
<path d="M1324.5 1186V1206.5L1396.5 1193" stroke="white" stroke-width="3" stroke-linecap="round"/>
<path d="M1286.5 1195.5V1213L1218.5 1226.5" stroke="white" stroke-width="3" stroke-linecap="round"/>
<path d="M1314.5 1404V1411.5" stroke="white" stroke-width="3" stroke-linecap="round"/>
<path d="M1359.5 1395V1403.5" stroke="white" stroke-width="3" stroke-linecap="round"/>
<path d="M1386.5 1545C1401.83 1571.67 1433.5 1636.2 1437.5 1681" stroke="white" stroke-width="3" stroke-linecap="round"/>
<path d="M1282 1465.5V1485.5L1300 1506L1310 1531L1293 1583" stroke="white" stroke-width="3" stroke-linecap="round"/>
<path d="M1031.5 1437.5C1027.83 1457.17 1021 1498.5 1023 1506.5C1025 1514.5 1020.5 1520.83 1018 1523C1017 1523.17 1015 1531.1 1015 1561.5" stroke="white" stroke-width="3" stroke-linecap="round"/>
<path d="M1019.5 1572C1028.67 1586.17 1056.3 1606 1093.5 1572" stroke="white" stroke-width="3" stroke-linecap="round"/>
<path d="M1547 1473L1569 1488.5C1568.67 1492.17 1571.6 1502 1586 1512C1600.4 1522 1603 1526.5 1602.5 1527.5C1611.67 1531.33 1630.6 1540.8 1633 1548C1635.4 1555.2 1638.67 1569 1640 1575V1590" stroke="white" stroke-width="3" stroke-linecap="round"/>
<path d="M1517 1026.5L1541 1071.5M1536 1010L1571.5 1061.5M1504 1051L1575.5 1010M1517 1071.5L1593.5 1026.5" stroke="white" stroke-width="3" stroke-linecap="round"/>
<path d="M1604 1309L1626 1275H1675L1638.5 1294H1667L1638.5 1325.5H1667V1346L1594 1404L1631.5 1346H1604L1631.5 1309H1604Z" stroke="white" stroke-width="3" stroke-linecap="round"/>
<path d="M1624 1124.5V1070L1664 1116.5L1607 1105.5L1675 1060.5L1624 1124.5Z" stroke="white" stroke-width="3" stroke-linecap="round"/>
<path d="M1617.5 978.5L1627 958L1638.5 978.5L1611 966.5H1642.5L1617.5 978.5Z" stroke="white" stroke-width="3" stroke-linecap="round"/>
</svg>
